# xmcd
#
# Track frame offsets: 
#        187
#        15125
#        28577
#        40505
#        55690
#        73412
#        89557
#        106760
#        122125
#        140410
#
# Disc length: 2053 seconds
#
# Revision: 2
# Processed by: cddbd v1.5PL3 Copyright (c) Steve Scherf et al.
# Submitted via: ExactAudioCopy v0.95a3
#
DISCID=7b08030a
DTITLE=Turner Nichols - Turner Nichols
DYEAR=1993
DGENRE=
TTITLE0=Moonlight Drive-In
TTITLE1=Come Saturday Night
TTITLE2=She Loves To Hear Me Rock
TTITLE3=Stop Right There
TTITLE4=You Can't Hurt Me Anymore
TTITLE5=She Needs A Lover
TTITLE6=Harleys And Horses
TTITLE7=Rose Tattoo
TTITLE8=Just So You Know It
TTITLE9=Anything
EXTD=
EXTT0=
EXTT1=
EXTT2=
EXTT3=
EXTT4=
EXTT5=
EXTT6=
EXTT7=
EXTT8=
EXTT9=
PLAYORDER=
